<svg xmlns="http://www.w3.org/2000/svg" xmlns:xlink="http://www.w3.org/1999/xlink" width="500" zoomAndPan="magnify" viewBox="0 0 375 374.999991" height="500" preserveAspectRatio="xMidYMid meet" version="1.0"><defs><clipPath id="f3fefab81d"><path d="M 59.09375 6.710938 L 315.59375 6.710938 L 315.59375 337 L 59.09375 337 Z M 59.09375 6.710938 " clip-rule="nonzero"/></clipPath></defs><g clip-path="url(#f3fefab81d)"><path fill="#000000" d="M 187.628906 6.972656 C 158.453125 6.972656 134.734375 27.457031 134.734375 52.492188 L 134.734375 87.769531 L 97.371094 87.769531 C 96.691406 87.757812 96.035156 87.867188 95.394531 88.09375 C 94.757812 88.316406 94.175781 88.648438 93.65625 89.078125 C 93.132812 89.511719 92.703125 90.023438 92.363281 90.609375 C 92.023438 91.195312 91.796875 91.824219 91.683594 92.492188 L 60.058594 316.046875 C 59.964844 316.695312 59.902344 317.347656 59.878906 318.003906 C 59.851562 318.660156 59.863281 319.3125 59.90625 319.96875 C 59.949219 320.621094 60.03125 321.273438 60.144531 321.917969 C 60.261719 322.566406 60.410156 323.203125 60.59375 323.832031 C 60.777344 324.460938 60.992188 325.078125 61.242188 325.6875 C 61.492188 326.292969 61.773438 326.882812 62.089844 327.460938 C 62.402344 328.035156 62.746094 328.59375 63.121094 329.132812 C 63.492188 329.671875 63.894531 330.1875 64.324219 330.683594 C 64.753906 331.179688 65.210938 331.652344 65.691406 332.097656 C 66.171875 332.542969 66.671875 332.964844 67.199219 333.355469 C 67.722656 333.75 68.269531 334.113281 68.832031 334.445312 C 69.398438 334.78125 69.976562 335.082031 70.574219 335.351562 C 71.171875 335.625 71.78125 335.863281 72.40625 336.066406 C 73.027344 336.273438 73.660156 336.445312 74.300781 336.582031 C 74.941406 336.71875 75.589844 336.820312 76.242188 336.890625 C 76.894531 336.957031 77.546875 336.988281 78.203125 336.984375 L 297.054688 336.984375 C 297.707031 336.988281 298.363281 336.957031 299.015625 336.890625 C 299.667969 336.820312 300.3125 336.71875 300.953125 336.582031 C 301.597656 336.445312 302.226562 336.273438 302.851562 336.066406 C 303.472656 335.863281 304.082031 335.625 304.679688 335.351562 C 305.277344 335.082031 305.859375 334.78125 306.421875 334.445312 C 306.988281 334.113281 307.53125 333.75 308.058594 333.355469 C 308.582031 332.964844 309.085938 332.542969 309.566406 332.097656 C 310.046875 331.652344 310.5 331.179688 310.929688 330.683594 C 311.359375 330.1875 311.761719 329.671875 312.136719 329.132812 C 312.507812 328.59375 312.851562 328.035156 313.167969 327.460938 C 313.480469 326.882812 313.761719 326.292969 314.011719 325.6875 C 314.261719 325.082031 314.480469 324.460938 314.664062 323.832031 C 314.847656 323.203125 314.996094 322.566406 315.109375 321.917969 C 315.226562 321.273438 315.304688 320.621094 315.351562 319.96875 C 315.394531 319.3125 315.402344 318.660156 315.378906 318.003906 C 315.351562 317.347656 315.292969 316.695312 315.195312 316.046875 L 283.347656 92.320312 C 283.230469 91.652344 283.003906 91.023438 282.664062 90.4375 C 282.324219 89.851562 281.894531 89.34375 281.375 88.910156 C 280.851562 88.476562 280.273438 88.148438 279.632812 87.921875 C 278.996094 87.695312 278.335938 87.589844 277.660156 87.597656 L 240.519531 87.597656 L 240.519531 52.492188 C 240.519531 27.457031 216.804688 6.972656 187.628906 6.972656 Z M 145.769531 87.769531 L 145.769531 52.492188 C 145.769531 33.375 164.539062 17.839844 187.628906 17.839844 C 210.71875 17.839844 229.488281 33.488281 229.488281 52.492188 L 229.488281 87.769531 Z M 145.769531 87.769531 " fill-opacity="1" fill-rule="nonzero"/></g></svg>