<svg xmlns="http://www.w3.org/2000/svg" xmlns:xlink="http://www.w3.org/1999/xlink" width="1920" zoomAndPan="magnify" viewBox="0 0 1440 809.999993" height="1080" preserveAspectRatio="xMidYMid meet" version="1.0"><defs><clipPath id="9682b2ca08"><path d="M 560 180.421875 L 880 180.421875 L 880 592.785156 L 560 592.785156 Z M 560 180.421875 " clip-rule="nonzero"/></clipPath></defs><rect x="-144" width="1728" fill="#ffffff" y="-80.999999" height="971.999992" fill-opacity="1"/><rect x="-144" width="1728" fill="#ffffff" y="-80.999999" height="971.999992" fill-opacity="1"/><g clip-path="url(#9682b2ca08)"><path fill="#ffffff" d="M 720.355469 180.738281 C 683.925781 180.738281 654.316406 206.304688 654.316406 237.546875 L 654.316406 281.574219 L 607.664062 281.574219 C 607.246094 281.566406 606.828125 281.597656 606.414062 281.664062 C 606 281.734375 605.59375 281.835938 605.199219 281.976562 C 604.804688 282.117188 604.421875 282.289062 604.058594 282.496094 C 603.691406 282.703125 603.347656 282.941406 603.027344 283.207031 C 602.703125 283.476562 602.40625 283.769531 602.136719 284.089844 C 601.863281 284.410156 601.625 284.753906 601.414062 285.117188 C 601.203125 285.480469 601.027344 285.859375 600.882812 286.253906 C 600.742188 286.648438 600.632812 287.050781 600.5625 287.464844 L 561.082031 566.460938 C 560.960938 567.269531 560.886719 568.082031 560.855469 568.902344 C 560.820312 569.71875 560.832031 570.539062 560.890625 571.355469 C 560.945312 572.171875 561.046875 572.980469 561.1875 573.789062 C 561.332031 574.59375 561.519531 575.390625 561.746094 576.175781 C 561.976562 576.960938 562.246094 577.734375 562.558594 578.488281 C 562.871094 579.246094 563.222656 579.984375 563.613281 580.703125 C 564.007812 581.421875 564.4375 582.117188 564.902344 582.789062 C 565.367188 583.464844 565.871094 584.109375 566.40625 584.726562 C 566.941406 585.347656 567.511719 585.933594 568.109375 586.492188 C 568.710938 587.050781 569.335938 587.574219 569.992188 588.0625 C 570.648438 588.550781 571.332031 589.003906 572.035156 589.421875 C 572.738281 589.839844 573.464844 590.214844 574.210938 590.554688 C 574.957031 590.890625 575.71875 591.191406 576.496094 591.445312 C 577.273438 591.703125 578.0625 591.914062 578.863281 592.085938 C 579.664062 592.257812 580.46875 592.386719 581.285156 592.46875 C 582.097656 592.554688 582.914062 592.59375 583.734375 592.589844 L 856.976562 592.589844 C 857.792969 592.59375 858.609375 592.554688 859.425781 592.46875 C 860.238281 592.386719 861.046875 592.257812 861.847656 592.085938 C 862.648438 591.914062 863.4375 591.703125 864.214844 591.445312 C 864.992188 591.191406 865.753906 590.890625 866.5 590.554688 C 867.246094 590.214844 867.96875 589.839844 868.675781 589.421875 C 869.378906 589.003906 870.058594 588.550781 870.714844 588.0625 C 871.371094 587.574219 872 587.050781 872.597656 586.492188 C 873.199219 585.933594 873.765625 585.347656 874.304688 584.726562 C 874.839844 584.109375 875.339844 583.464844 875.808594 582.789062 C 876.273438 582.117188 876.703125 581.421875 877.09375 580.703125 C 877.488281 579.984375 877.839844 579.246094 878.152344 578.488281 C 878.464844 577.734375 878.734375 576.960938 878.964844 576.175781 C 879.191406 575.390625 879.378906 574.59375 879.523438 573.789062 C 879.664062 572.980469 879.765625 572.171875 879.820312 571.355469 C 879.875 570.539062 879.886719 569.71875 879.855469 568.902344 C 879.824219 568.082031 879.746094 567.269531 879.628906 566.460938 L 839.863281 287.253906 C 839.792969 286.839844 839.683594 286.433594 839.542969 286.039062 C 839.398438 285.644531 839.222656 285.265625 839.011719 284.902344 C 838.800781 284.539062 838.5625 284.199219 838.289062 283.878906 C 838.019531 283.558594 837.722656 283.261719 837.398438 282.996094 C 837.078125 282.726562 836.734375 282.488281 836.367188 282.28125 C 836.003906 282.074219 835.625 281.902344 835.226562 281.761719 C 834.832031 281.625 834.425781 281.519531 834.011719 281.453125 C 833.597656 281.382812 833.179688 281.351562 832.761719 281.359375 L 786.394531 281.359375 L 786.394531 237.546875 C 786.394531 206.304688 756.78125 180.738281 720.355469 180.738281 Z M 668.09375 281.574219 L 668.09375 237.546875 C 668.09375 213.6875 691.523438 194.300781 720.355469 194.300781 C 749.183594 194.300781 772.617188 213.828125 772.617188 237.546875 L 772.617188 281.574219 Z M 668.09375 281.574219 " fill-opacity="1" fill-rule="nonzero"/></g></svg>